<?xml version="1.0" standalone="no"?>
<!DOCTYPE svg PUBLIC "-//W3C//DTD SVG 20010904//EN"
 "http://www.w3.org/TR/2001/REC-SVG-20010904/DTD/svg10.dtd">
<svg version="1.0" xmlns="http://www.w3.org/2000/svg"
 width="400.000000pt" height="400.000000pt" viewBox="0 0 400.000000 400.000000"
 preserveAspectRatio="xMidYMid meet">
<metadata>
Created by potrace 1.14, written by Peter Selinger 2001-2017
</metadata>
<g transform="translate(0.000000,400.000000) scale(0.100000,-0.100000)"
fill="#000000" stroke="none">
<path d="M1358 3845 c-2 -2 -15 -6 -28 -8 -87 -16 -270 -90 -270 -109 0 -5 -4
-7 -9 -3 -6 3 -13 0 -18 -7 -4 -7 -15 -17 -24 -23 -28 -18 -102 -75 -97 -75 3
0 -15 -21 -41 -47 -26 -27 -63 -70 -84 -98 -20 -27 -40 -54 -44 -60 -7 -9 -54
-95 -74 -135 -20 -40 -40 -92 -63 -164 -25 -75 -33 -108 -41 -166 -2 -14 -6
-36 -9 -50 -3 -14 -8 -45 -10 -70 -3 -25 -11 -99 -20 -165 -8 -66 -18 -147
-21 -180 -3 -33 -8 -69 -10 -80 -6 -24 -13 -78 -21 -160 -14 -145 -62 -378
-144 -700 -60 -235 -70 -299 -73 -458 -1 -60 2 -111 7 -114 4 -3 2 -9 -5 -14
-10 -6 -10 -9 -2 -9 7 0 12 -13 12 -32 0 -35 1 -41 26 -133 9 -33 18 -64 19
-70 1 -5 9 -23 16 -40 7 -16 19 -45 27 -63 8 -19 23 -42 34 -53 10 -10 14 -19
8 -19 -6 0 -5 -6 3 -14 7 -7 20 -24 28 -36 8 -12 21 -28 27 -35 10 -11 10 -14
0 -18 -11 -5 18 -11 36 -8 5 1 6 -3 2 -8 -6 -11 46 -71 61 -71 5 0 15 -9 22
-20 7 -11 19 -20 28 -20 8 0 13 -4 10 -9 -3 -5 8 -14 25 -20 19 -7 28 -15 23
-22 -4 -8 -3 -9 5 -5 6 4 14 0 17 -9 6 -13 8 -14 15 -3 7 10 9 10 9 1 0 -7 7
-13 15 -13 8 0 15 -4 15 -9 0 -4 10 -8 23 -8 40 -1 48 -3 42 -12 -3 -6 6 -8
20 -5 15 3 25 0 25 -7 0 -7 3 -9 7 -6 3 4 12 2 20 -4 10 -9 13 -8 13 1 0 10 3
10 15 0 8 -7 26 -10 40 -8 17 4 29 0 35 -11 6 -10 10 -11 10 -3 0 6 7 12 15
12 8 0 15 -6 15 -12 0 -9 4 -8 10 2 9 13 11 13 20 0 7 -11 10 -11 10 -2 0 7 4
10 10 7 5 -3 10 0 11 7 0 7 4 4 9 -7 5 -11 9 -15 9 -9 1 6 9 11 19 11 17 -1
133 12 162 18 8 2 33 6 55 10 22 3 56 10 75 15 19 5 51 11 71 14 20 3 42 8 50
10 8 3 25 7 39 10 14 2 81 16 150 31 69 15 132 28 140 30 8 2 101 22 205 44
105 23 204 44 220 47 17 3 46 9 65 14 19 5 51 12 70 15 19 3 78 15 130 27 52
11 106 22 120 25 110 20 370 87 422 108 34 15 71 28 81 28 9 1 17 5 17 9 0 4
15 15 33 24 17 9 34 20 37 24 3 4 12 11 21 16 58 32 179 151 229 224 14 19 32
44 42 54 9 10 15 23 12 28 -3 4 -1 8 4 8 5 0 12 8 16 17 3 10 14 32 25 48 10
17 16 33 14 38 -2 4 1 7 6 7 6 0 11 9 11 20 0 11 4 20 10 20 5 0 9 3 8 8 0 4
2 14 5 22 20 51 43 129 53 180 2 14 7 39 11 55 4 17 6 34 5 39 -2 4 3 14 9 22
8 10 8 14 0 14 -7 0 -8 8 -3 23 14 38 7 219 -13 347 0 3 -3 10 -7 15 -3 6 -8
24 -9 40 -2 17 -10 36 -17 43 -7 8 -10 18 -6 23 3 6 1 15 -4 22 -5 7 -15 29
-21 50 -7 20 -17 37 -22 37 -5 0 -8 4 -7 9 3 10 -63 124 -74 129 -5 2 -8 10
-8 18 0 9 -4 12 -10 9 -5 -3 -10 -2 -10 3 0 5 -8 18 -17 30 -10 12 -25 30 -33
40 -60 78 -106 127 -260 282 -248 249 -513 479 -730 635 -30 22 -66 50 -80 62
-14 13 -28 23 -31 23 -3 0 -15 8 -27 18 -11 9 -33 26 -48 37 -59 43 -289 219
-294 225 -3 3 -43 35 -90 71 -151 117 -286 166 -456 167 -56 0 -104 -1 -106
-3z m-488 -1819 c0 -3 -4 -8 -10 -11 -5 -3 -10 -1 -10 4 0 6 5 11 10 11 6 0
10 -2 10 -4z m-96 -184 c3 -5 -1 -9 -9 -9 -8 0 -15 4 -15 9 0 4 4 8 9 8 6 0
12 -4 15 -8z m-200 -40 c3 -5 -1 -9 -9 -9 -8 0 -12 4 -9 9 3 4 7 8 9 8 2 0 6
-4 9 -8z m397 -639 c13 -16 12 -17 -3 -4 -10 7 -18 15 -18 17 0 8 8 3 21 -13z
m1713 -161 c3 -5 -1 -9 -9 -9 -8 0 -12 4 -9 9 3 4 7 8 9 8 2 0 6 -4 9 -8z"/>
</g>
</svg>
