<?xml version="1.0" encoding="utf-8"?>
<!-- Generator: Adobe Illustrator 22.1.0, SVG Export Plug-In . SVG Version: 6.00 Build 0)  -->
<svg version="1.1" id="Layer_1" xmlns="http://www.w3.org/2000/svg" xmlns:xlink="http://www.w3.org/1999/xlink" x="0px" y="0px"
	 viewBox="0 0 316.8 298.3" style="enable-background:new 0 0 316.8 298.3;" xml:space="preserve">
<style type="text/css">
	.st0{fill:#FFFFFF;}
</style>
<g>
	<rect x="0.5" y="2.2" class="st0" width="14.2" height="70.8"/>
	<rect x="28.9" y="2.2" class="st0" width="14.2" height="70.8"/>
	<rect x="57" y="2.2" class="st0" width="14.2" height="70.8"/>
	<rect x="161.6" y="2.2" class="st0" width="14.2" height="70.8"/>
	<rect x="189.2" y="2.2" class="st0" width="14.2" height="70.8"/>
	<rect x="217.7" y="2.2" class="st0" width="14.2" height="70.8"/>
	<rect x="245.6" y="58.9" class="st0" width="70.8" height="14.2"/>
	<rect x="245.6" y="30.6" class="st0" width="70.8" height="14.2"/>
	<rect x="245.6" y="2.1" class="st0" width="70.8" height="14.2"/>
	<path class="st0" d="M116.2,60.5c-12.7,0-23-10.3-23-23s10.3-23,23-23s23,10.3,23,23S128.9,60.5,116.2,60.5 M116.2,0
		C95.6,0,78.8,16.8,78.8,37.4c0,20.7,16.8,37.4,37.4,37.4c20.7,0,37.4-16.8,37.4-37.4C153.7,16.8,136.9,0,116.2,0"/>
	<path class="st0" d="M304,141h4.7v-8.4l8.1-12.7h-5.3l-5.1,8.5l-5-8.5H296l8.1,12.8v8.3L304,141L304,141z M282.4,140.4
		c1.5-0.7,2.8-1.4,3.9-2.4v-9.2h-9.2v4h4.7v3c-1.2,0.8-2.7,1.3-4.4,1.3c-0.9,0-1.8-0.2-2.6-0.5c-0.8-0.3-1.5-0.8-2-1.4
		c-0.6-0.6-1-1.3-1.3-2.1s-0.5-1.7-0.5-2.7v-0.1c0-0.9,0.2-1.8,0.5-2.6c0.3-0.8,0.7-1.5,1.3-2.1c0.6-0.6,1.2-1.1,1.9-1.4
		c0.7-0.4,1.5-0.5,2.4-0.5c0.6,0,1.2,0.1,1.7,0.2s1,0.2,1.4,0.4c0.4,0.2,0.9,0.4,1.3,0.7s0.8,0.6,1.2,0.9l2.9-3.5
		c-0.5-0.5-1.1-0.9-1.7-1.2c-0.6-0.4-1.2-0.7-1.9-0.9c-0.7-0.2-1.4-0.4-2.2-0.6c-0.8-0.1-1.6-0.2-2.6-0.2c-1.6,0-3.1,0.3-4.4,0.9
		c-1.4,0.6-2.5,1.4-3.5,2.4s-1.8,2.2-2.3,3.5c-0.6,1.3-0.8,2.7-0.8,4.2v0.1c0,1.6,0.3,3,0.8,4.4c0.5,1.3,1.3,2.5,2.3,3.4
		c1,1,2.1,1.7,3.5,2.3c1.4,0.5,2.9,0.8,4.5,0.8C279.2,141.4,280.9,141,282.4,140.4 M234.7,141h4.7l1.9-4.7h9l1.9,4.7h4.9l-9.1-21.3
		h-4.3L234.7,141z M243.1,132.1l2.8-6.9l2.8,6.9H243.1z M204.9,141h4.6v-13.5l10.3,13.5h4v-21.2h-4.6v13l-9.9-13H205V141H204.9z
		 M183.1,133.8h9.3v-4.4h-9.3V133.8z M162.5,141h4.7v-8.4l8.1-12.7H170l-5.1,8.5l-5-8.5h-5.4l8.1,12.8v8.3L162.5,141L162.5,141z
		 M133.2,141h15.2v-4.2h-10.6v-16.9h-4.7V141H133.2z M114.4,140.5c1.4-0.6,2.6-1.4,3.6-2.4s1.8-2.2,2.3-3.5s0.8-2.7,0.8-4.2v-0.1
		c0-1.5-0.3-2.9-0.8-4.2c-0.6-1.3-1.3-2.5-2.3-3.4c-1-1-2.2-1.8-3.6-2.3c-1.4-0.6-2.9-0.9-4.5-0.9s-3.1,0.3-4.5,0.9
		s-2.6,1.4-3.6,2.4s-1.8,2.2-2.3,3.5c-0.6,1.3-0.8,2.7-0.8,4.2v0.1c0,1.5,0.3,2.9,0.8,4.2c0.6,1.3,1.3,2.5,2.3,3.4
		c1,1,2.2,1.8,3.6,2.3c1.4,0.6,2.9,0.9,4.5,0.9S113,141.1,114.4,140.5 M107.3,136.5c-0.8-0.4-1.5-0.8-2-1.4c-0.6-0.6-1-1.3-1.3-2.1
		s-0.5-1.7-0.5-2.6v-0.1c0-0.9,0.2-1.8,0.5-2.6c0.3-0.8,0.7-1.5,1.3-2.1c0.6-0.6,1.2-1.1,2-1.4s1.6-0.5,2.6-0.5
		c0.9,0,1.8,0.2,2.6,0.5c0.8,0.4,1.5,0.8,2,1.4c0.6,0.6,1,1.3,1.3,2.1s0.5,1.7,0.5,2.6v0.1c0,0.9-0.2,1.8-0.5,2.6s-0.7,1.5-1.3,2.1
		c-0.6,0.6-1.2,1.1-2,1.4c-0.8,0.3-1.6,0.5-2.6,0.5C109,137.1,108.1,136.9,107.3,136.5 M68.6,141h4.7v-8.5h8.6v8.5h4.7v-21.2h-4.7
		v8.4h-8.6v-8.4h-4.7V141z M49.7,140.5c1.4-0.6,2.6-1.4,3.6-2.4s1.8-2.2,2.3-3.5c0.6-1.3,0.8-2.7,0.8-4.2v-0.1
		c0-1.5-0.3-2.9-0.8-4.2c-0.6-1.3-1.3-2.5-2.3-3.4c-1-1-2.2-1.8-3.6-2.3c-1.4-0.6-2.9-0.9-4.5-0.9s-3.1,0.3-4.5,0.9
		s-2.6,1.4-3.6,2.4s-1.8,2.2-2.3,3.5c-0.6,1.3-0.8,2.7-0.8,4.2v0.1c0,1.5,0.3,2.9,0.8,4.2c0.6,1.3,1.3,2.5,2.3,3.4s2.2,1.8,3.6,2.3
		c1.4,0.6,2.9,0.9,4.5,0.9S48.3,141.1,49.7,140.5 M42.6,136.5c-0.8-0.4-1.5-0.8-2-1.4c-0.6-0.6-1-1.3-1.3-2.1s-0.5-1.7-0.5-2.6v-0.1
		c0-0.9,0.2-1.8,0.5-2.6c0.3-0.8,0.7-1.5,1.3-2.1s1.2-1.1,2-1.4s1.6-0.5,2.6-0.5c0.9,0,1.8,0.2,2.6,0.5c0.8,0.4,1.5,0.8,2,1.4
		c0.6,0.6,1,1.3,1.3,2.1s0.5,1.7,0.5,2.6v0.1c0,0.9-0.2,1.8-0.5,2.6s-0.7,1.5-1.3,2.1s-1.2,1.1-2,1.4c-0.8,0.3-1.6,0.5-2.6,0.5
		C44.3,137.1,43.4,136.9,42.6,136.5 M0.6,141h4.6v-13.7l5.9,9h0.1l6-9V141h4.6v-21.2h-5l-5.6,9l-5.6-9h-5C0.6,119.8,0.6,141,0.6,141
		z"/>
	<rect x="0.5" y="93.4" class="st0" width="315.9" height="14.2"/>
	<rect x="0.5" y="153.4" class="st0" width="315.9" height="14.2"/>
	<rect x="0.5" y="213.3" class="st0" width="315.9" height="14.2"/>
	<path class="st0" d="M0.6,200.2h4.7v-9.3c0-1.1,0.3-2,0.8-2.5c0.5-0.6,1.2-0.9,2.1-0.9s1.6,0.3,2.1,0.9c0.5,0.6,0.7,1.4,0.7,2.5
		v9.3h4.7v-9.3c0-1.1,0.3-2,0.8-2.5c0.5-0.6,1.2-0.9,2.1-0.9s1.6,0.3,2.1,0.9c0.5,0.6,0.7,1.4,0.7,2.5v9.3H26v-10.9
		c0-2-0.5-3.5-1.5-4.6c-1-1-2.4-1.6-4.1-1.6c-1.1,0-2.2,0.2-3,0.7c-0.9,0.4-1.7,1.1-2.4,2c-0.4-0.9-1.1-1.5-1.9-2
		c-0.8-0.5-1.7-0.7-2.8-0.7c-0.6,0-1.1,0.1-1.6,0.2s-0.9,0.3-1.3,0.6c-0.4,0.2-0.8,0.5-1.1,0.9c-0.3,0.3-0.6,0.7-0.9,1v-2.4H0.6
		V200.2z"/>
	<polygon class="st0" points="33.8,180.7 37.2,180.7 41.2,176.9 37.2,175.2 	"/>
	<polygon class="st0" points="39.8,180.7 43.3,180.7 47.3,176.9 43.4,175.2 	"/>
	<path class="st0" d="M38.3,200.3c0.5-0.1,0.9-0.3,1.3-0.6c0.4-0.2,0.8-0.5,1.1-0.9c0.3-0.3,0.6-0.7,0.9-1v2.4h4.7v-16.7h-4.7v9.3
		c0,1.1-0.3,2-0.8,2.5c-0.5,0.6-1.2,0.9-2.2,0.9c-0.9,0-1.6-0.3-2.1-0.9c-0.5-0.6-0.7-1.4-0.7-2.5v-9.3H31v10.8
		c0,1.9,0.5,3.4,1.5,4.5s2.4,1.6,4.2,1.6C37.3,200.5,37.8,200.4,38.3,200.3"/>
	<polygon class="st0" points="57.1,200.3 61.4,200.3 67.9,183.5 63,183.5 59.2,194.7 55.5,183.5 50.5,183.5 	"/>
	<polygon class="st0" points="75.3,180.7 78.9,180.7 82.9,176.9 78.8,175.2 	"/>
	<path class="st0" d="M80.7,190.5h-7.1c0.2-1.1,0.6-1.9,1.2-2.6s1.4-1,2.4-1s1.8,0.3,2.4,1C80.2,188.6,80.6,189.5,80.7,190.5
		 M85.3,192.2c0-1.2-0.2-2.3-0.5-3.4c-0.3-1.1-0.8-2.1-1.5-2.9c-0.7-0.8-1.5-1.5-2.5-2s-2.2-0.7-3.6-0.7c-1.2,0-2.3,0.2-3.3,0.7
		s-1.9,1.1-2.6,1.9c-0.7,0.8-1.3,1.7-1.7,2.8c-0.4,1.1-0.6,2.2-0.6,3.4v0.1c0,1.3,0.2,2.5,0.7,3.5c0.4,1,1,2,1.8,2.7
		c0.8,0.8,1.7,1.4,2.8,1.8c1.1,0.4,2.2,0.6,3.5,0.6c1.5,0,2.8-0.3,4-0.8c1.1-0.5,2.1-1.3,2.9-2.3l-2.7-2.4c-0.7,0.6-1.3,1-1.9,1.3
		s-1.3,0.4-2.1,0.4c-1.1,0-1.9-0.3-2.7-0.8c-0.7-0.5-1.2-1.4-1.4-2.4h11.6c0-0.2,0-0.4,0-0.7C85.3,192.6,85.3,192.4,85.3,192.2"/>
	<path class="st0" d="M98.5,200.2c0.8-0.2,1.5-0.5,2-1c0.6-0.4,1-1,1.4-1.7c0.3-0.7,0.5-1.5,0.5-2.4V195c0-0.8-0.2-1.4-0.5-2
		c-0.3-0.5-0.7-1-1.2-1.4s-1-0.7-1.6-0.9c-0.6-0.3-1.2-0.5-1.8-0.7c-0.5-0.1-0.9-0.3-1.3-0.4c-0.4-0.1-0.8-0.3-1.1-0.5
		c-0.3-0.2-0.6-0.3-0.7-0.5c-0.2-0.2-0.3-0.4-0.3-0.6l0,0c0-0.3,0.1-0.6,0.4-0.8s0.7-0.3,1.3-0.3c0.6,0,1.3,0.1,2.1,0.4
		c0.8,0.3,1.6,0.7,2.4,1.1l1.8-3.3c-0.9-0.6-1.9-1.1-3-1.4c-1.1-0.3-2.2-0.5-3.2-0.5c-0.8,0-1.6,0.1-2.4,0.3c-0.7,0.2-1.4,0.6-1.9,1
		c-0.5,0.5-1,1-1.3,1.7s-0.5,1.4-0.5,2.3v0.1c0,0.8,0.2,1.5,0.5,2.1s0.7,1,1.2,1.4s1,0.7,1.6,0.9s1.2,0.4,1.8,0.6
		c0.5,0.1,0.9,0.3,1.3,0.4c0.4,0.1,0.8,0.3,1.1,0.4c0.3,0.1,0.6,0.3,0.8,0.5c0.2,0.2,0.3,0.4,0.3,0.7v0.1c0,0.4-0.2,0.7-0.5,0.9
		s-0.8,0.3-1.5,0.3c-0.8,0-1.6-0.2-2.5-0.5s-1.8-0.8-2.7-1.5l-2,3.1c1.1,0.9,2.3,1.5,3.5,1.9s2.4,0.6,3.6,0.6
		C96.9,200.5,97.8,200.4,98.5,200.2"/>
	<polygon class="st0" points="105.7,200.2 120.2,200.2 120.2,196.3 111.6,196.3 120.2,186.8 120.2,183.5 106,183.5 106,187.3 
		114.3,187.3 105.7,196.8 	"/>
	<path class="st0" d="M135.2,190.5h-7.1c0.2-1.1,0.6-1.9,1.2-2.6s1.4-1,2.4-1s1.8,0.3,2.4,1C134.7,188.6,135,189.5,135.2,190.5
		 M139.8,192.2c0-1.2-0.2-2.3-0.5-3.4c-0.3-1.1-0.8-2.1-1.5-2.9c-0.7-0.8-1.5-1.5-2.5-2s-2.2-0.7-3.6-0.7c-1.2,0-2.3,0.2-3.3,0.7
		s-1.9,1.1-2.6,1.9c-0.7,0.8-1.3,1.7-1.7,2.8c-0.4,1.1-0.6,2.2-0.6,3.4v0.1c0,1.3,0.2,2.5,0.7,3.5c0.4,1,1,2,1.8,2.7
		c0.8,0.8,1.7,1.4,2.8,1.8c1.1,0.4,2.2,0.6,3.5,0.6c1.5,0,2.8-0.3,4-0.8c1.1-0.5,2.1-1.3,2.9-2.3l-2.7-2.4c-0.7,0.6-1.3,1-1.9,1.3
		c-0.6,0.3-1.3,0.4-2.1,0.4c-1.1,0-1.9-0.3-2.7-0.8c-0.7-0.5-1.2-1.4-1.4-2.4H140c0-0.2,0-0.4,0-0.7
		C139.8,192.6,139.8,192.4,139.8,192.2"/>
	<path class="st0" d="M151.5,200.2c0.6-0.2,1.2-0.4,1.6-0.7v-3.8c-0.7,0.4-1.5,0.6-2.3,0.6c-1,0-1.5-0.5-1.5-1.6v-7.1h3.9v-4h-3.9
		v-4.3h-4.7v4.3h-2v4h2v7.9c0,1,0.1,1.8,0.4,2.4c0.2,0.6,0.6,1.1,1,1.5s0.9,0.7,1.5,0.8c0.6,0.2,1.2,0.2,2,0.2
		C150.2,200.4,150.9,200.4,151.5,200.2"/>
	<rect x="158.4" y="183.5" class="st0" width="4.7" height="16.7"/>
	<path class="st0" d="M189.3,190.5h-7.1c0.2-1.1,0.6-1.9,1.2-2.6s1.4-1,2.4-1s1.8,0.3,2.4,1C188.8,188.6,189.2,189.5,189.3,190.5
		 M193.9,192.2c0-1.2-0.2-2.3-0.5-3.4c-0.3-1.1-0.8-2.1-1.5-2.9c-0.7-0.8-1.5-1.5-2.5-2s-2.2-0.7-3.6-0.7c-1.2,0-2.3,0.2-3.3,0.7
		s-1.9,1.1-2.6,1.9c-0.7,0.8-1.3,1.7-1.7,2.8s-0.6,2.2-0.6,3.4v0.1c0,1.3,0.2,2.5,0.7,3.5c0.4,1,1,2,1.8,2.7
		c0.8,0.8,1.7,1.4,2.8,1.8c1.1,0.4,2.2,0.6,3.5,0.6c1.5,0,2.8-0.3,4-0.8c1.1-0.5,2.1-1.3,2.9-2.3l-2.7-2.4c-0.7,0.6-1.3,1-1.9,1.3
		c-0.6,0.3-1.3,0.4-2.1,0.4c-1.1,0-1.9-0.3-2.7-0.8c-0.7-0.5-1.2-1.4-1.4-2.4h11.6c0-0.2,0-0.4,0-0.7
		C193.9,192.6,193.9,192.4,193.9,192.2"/>
	<path class="st0" d="M210.2,191c0,0.6-0.1,1.1-0.3,1.6s-0.5,0.9-0.9,1.2s-0.8,0.6-1.3,0.8s-1,0.3-1.6,0.3c-1.2,0-2.1-0.4-2.9-1.1
		c-0.8-0.7-1.2-1.6-1.2-2.8l0,0c0-0.6,0.1-1.1,0.3-1.6s0.5-0.9,0.9-1.2s0.8-0.6,1.3-0.8s1-0.3,1.6-0.3s1.1,0.1,1.6,0.3
		s0.9,0.5,1.3,0.8s0.6,0.8,0.9,1.2C210,189.9,210.2,190.4,210.2,191L210.2,191z M214.8,196.4v-12.9h-4.7v2.2
		c-0.6-0.7-1.4-1.3-2.2-1.8s-1.9-0.7-3.2-0.7c-1,0-1.9,0.2-2.8,0.5c-0.9,0.3-1.7,0.8-2.4,1.5s-1.2,1.5-1.6,2.4
		c-0.4,1-0.6,2.1-0.6,3.3v0.1c0,1.2,0.2,2.3,0.6,3.3c0.4,1,0.9,1.8,1.6,2.4c0.7,0.7,1.5,1.2,2.4,1.5s1.8,0.5,2.8,0.5
		c1.3,0,2.3-0.2,3.1-0.7s1.6-1.1,2.3-2v0.8c0,1.5-0.4,2.6-1.2,3.4c-0.8,0.8-2,1.2-3.6,1.2c-1.1,0-2.1-0.1-3-0.4
		c-0.9-0.3-1.8-0.6-2.6-1.1l-1.6,3.5c1.1,0.6,2.2,1,3.5,1.3c1.2,0.3,2.6,0.5,3.9,0.5c1.6,0,3-0.2,4.2-0.5c1.2-0.4,2.2-0.9,3-1.7
		C214.1,201.6,214.8,199.4,214.8,196.4"/>
	<path class="st0" d="M225.4,205c0.5-0.2,1-0.4,1.4-0.8c0.4-0.4,0.8-0.9,1.2-1.4c0.4-0.6,0.7-1.3,1-2.2l6.4-17.1h-4.9l-3.6,11.4
		l-3.8-11.4h-5l6.5,16.7c-0.2,0.4-0.4,0.7-0.7,0.9c-0.2,0.2-0.6,0.2-1,0.2c-0.3,0-0.6-0.1-1-0.2c-0.4-0.1-0.7-0.3-1-0.5l-1.6,3.4
		c0.6,0.4,1.2,0.6,1.9,0.8s1.4,0.3,2.3,0.3C224.3,205.2,224.9,205.2,225.4,205"/>
	<path class="st0" d="M249.1,190.5H242c0.2-1.1,0.6-1.9,1.2-2.6s1.4-1,2.4-1s1.8,0.3,2.4,1C248.5,188.6,248.9,189.5,249.1,190.5
		 M253.7,192.2c0-1.2-0.2-2.3-0.5-3.4c-0.3-1.1-0.8-2.1-1.5-2.9c-0.7-0.8-1.5-1.5-2.5-2s-2.2-0.7-3.6-0.7c-1.2,0-2.3,0.2-3.3,0.7
		s-1.9,1.1-2.6,1.9c-0.7,0.8-1.3,1.7-1.7,2.8s-0.6,2.2-0.6,3.4v0.1c0,1.3,0.2,2.5,0.7,3.5c0.4,1,1,2,1.8,2.7
		c0.8,0.8,1.7,1.4,2.8,1.8c1.1,0.4,2.2,0.6,3.5,0.6c1.5,0,2.8-0.3,4-0.8c1.1-0.5,2.1-1.3,2.9-2.3l-2.7-2.4c-0.7,0.6-1.3,1-1.9,1.3
		c-0.6,0.3-1.3,0.4-2.1,0.4c-1.1,0-1.9-0.3-2.7-0.8c-0.7-0.5-1.2-1.4-1.4-2.4h11.6c0-0.2,0-0.4,0-0.7
		C253.7,192.6,253.7,192.4,253.7,192.2"/>
	<path class="st0" d="M265.3,200.2c0.6-0.2,1.2-0.4,1.6-0.7v-3.8c-0.7,0.4-1.5,0.6-2.3,0.6c-1,0-1.5-0.5-1.5-1.6v-7.1h3.9v-4h-3.9
		v-4.3h-4.7v4.3h-2v4h2v7.9c0,1,0.1,1.8,0.4,2.4c0.2,0.6,0.6,1.1,1,1.5s0.9,0.7,1.5,0.8c0.6,0.2,1.2,0.2,2,0.2
		C264,200.4,264.7,200.4,265.3,200.2"/>
	<path class="st0" d="M282,190.5h-7.1c0.2-1.1,0.6-1.9,1.2-2.6s1.4-1,2.4-1s1.8,0.3,2.4,1C281.4,188.6,281.8,189.5,282,190.5
		 M286.6,192.2c0-1.2-0.2-2.3-0.5-3.4c-0.3-1.1-0.8-2.1-1.5-2.9c-0.7-0.8-1.5-1.5-2.5-2s-2.2-0.7-3.6-0.7c-1.2,0-2.3,0.2-3.3,0.7
		s-1.9,1.1-2.6,1.9c-0.7,0.8-1.3,1.7-1.7,2.8c-0.4,1.1-0.6,2.2-0.6,3.4v0.1c0,1.3,0.2,2.5,0.7,3.5c0.4,1,1,2,1.8,2.7
		c0.8,0.8,1.7,1.4,2.8,1.8c1.1,0.4,2.2,0.6,3.5,0.6c1.5,0,2.8-0.3,4-0.8c1.1-0.5,2.1-1.3,2.9-2.3l-3-2.6c-0.7,0.6-1.3,1-1.9,1.3
		s-1.3,0.4-2.1,0.4c-1.1,0-1.9-0.3-2.7-0.8c-0.7-0.5-1.2-1.4-1.4-2.4h11.6c0-0.2,0-0.4,0-0.7C286.6,192.6,286.6,192.4,286.6,192.2"
		/>
	<path class="st0" d="M291,200.2h4.7v-9.3c0-1.1,0.3-2,0.8-2.5c0.5-0.6,1.2-0.9,2.1-0.9s1.6,0.3,2.1,0.9c0.5,0.6,0.7,1.4,0.7,2.5
		v9.3h4.7v-9.3c0-1.1,0.3-2,0.8-2.5c0.5-0.6,1.2-0.9,2.1-0.9s1.6,0.3,2.1,0.9c0.5,0.6,0.7,1.4,0.7,2.5v9.3h4.7v-10.9
		c0-2-0.5-3.5-1.5-4.6c-1-1-2.4-1.6-4.1-1.6c-1.1,0-2.2,0.2-3,0.7c-0.9,0.4-1.7,1.1-2.4,2c-0.4-0.9-1.1-1.5-1.9-2s-1.7-0.7-2.8-0.7
		c-0.6,0-1.1,0.1-1.6,0.2s-0.9,0.3-1.3,0.6c-0.4,0.2-0.8,0.5-1.1,0.9c-0.3,0.3-0.6,0.7-0.9,1v-2.4H291V200.2z"/>
	<path class="st0" d="M12.8,284.9c0,0.7-0.1,1.3-0.3,1.9s-0.5,1.1-0.9,1.5s-0.8,0.7-1.3,0.9c-0.5,0.2-1,0.3-1.6,0.3
		s-1.1-0.1-1.6-0.3s-0.9-0.5-1.3-0.9c-0.4-0.4-0.7-0.9-0.9-1.5c-0.2-0.6-0.3-1.2-0.3-1.9v-0.1c0-0.7,0.1-1.3,0.3-1.9s0.5-1,0.9-1.4
		s0.8-0.7,1.3-0.9c0.5-0.2,1-0.3,1.6-0.3s1.1,0.1,1.6,0.3c0.5,0.2,0.9,0.5,1.3,0.9c0.4,0.4,0.7,0.9,0.9,1.5
		C12.7,283.5,12.8,284.2,12.8,284.9L12.8,284.9z M17.5,293.2v-22.7h-4.7v8.2c-0.6-0.7-1.2-1.2-2.1-1.7c-0.8-0.5-1.9-0.7-3.1-0.7
		c-1,0-1.9,0.2-2.9,0.6c-0.9,0.4-1.7,0.9-2.4,1.7c-0.7,0.7-1.3,1.6-1.7,2.7S0,283.5,0,284.8v0.1c0,1.4,0.2,2.6,0.6,3.7s1,2,1.7,2.7
		s1.5,1.3,2.4,1.7c0.9,0.4,1.9,0.6,2.8,0.6c1.2,0,2.3-0.3,3.1-0.8s1.5-1.2,2.1-1.9v2.4h4.8V293.2z"/>
	<path class="st0" d="M33.2,283.6h-7.1c0.2-1.1,0.6-1.9,1.2-2.6s1.4-1,2.4-1s1.8,0.3,2.4,1C32.7,281.7,33,282.5,33.2,283.6
		 M37.8,285.3c0-1.2-0.2-2.3-0.5-3.4s-0.8-2.1-1.5-2.9s-1.5-1.5-2.5-2s-2.2-0.7-3.6-0.7c-1.2,0-2.3,0.2-3.3,0.7s-1.9,1.1-2.6,1.9
		s-1.3,1.7-1.7,2.8c-0.4,1.1-0.6,2.2-0.6,3.4v0.1c0,1.3,0.2,2.5,0.7,3.5c0.4,1,1,2,1.8,2.7c0.8,0.8,1.7,1.4,2.8,1.8
		c1.1,0.4,2.2,0.6,3.5,0.6c1.5,0,2.8-0.3,3.9-0.8s2.1-1.3,2.9-2.3l-2.7-2.4c-0.7,0.6-1.3,1-1.9,1.3c-0.6,0.3-1.3,0.4-2.1,0.4
		c-1.1,0-1.9-0.3-2.7-0.8c-0.7-0.5-1.2-1.4-1.4-2.4h11.6c0-0.2,0-0.4,0-0.7C37.8,285.7,37.8,285.5,37.8,285.3"/>
	<path class="st0" d="M50.7,293.2c0.8-0.2,1.5-0.5,2-1c0.6-0.4,1-1,1.4-1.7c0.3-0.7,0.5-1.5,0.5-2.4V288c0-0.8-0.2-1.4-0.5-2
		c-0.3-0.5-0.7-1-1.2-1.4s-1-0.7-1.6-0.9c-0.6-0.3-1.2-0.5-1.8-0.7c-0.5-0.1-0.9-0.3-1.3-0.4c-0.4-0.1-0.8-0.3-1.1-0.5
		s-0.6-0.3-0.7-0.5c-0.2-0.2-0.3-0.4-0.3-0.6v-0.1c0-0.3,0.1-0.6,0.4-0.8c0.3-0.2,0.7-0.3,1.3-0.3s1.3,0.1,2.1,0.4s1.6,0.7,2.4,1.1
		l1.8-3.3c-0.9-0.6-1.9-1.1-3-1.4s-2.2-0.5-3.2-0.5c-0.8,0-1.6,0.1-2.4,0.3c-0.7,0.2-1.4,0.6-1.9,1c-0.5,0.5-1,1-1.3,1.7
		s-0.5,1.4-0.5,2.3v0.1c0,0.8,0.2,1.5,0.5,2.1s0.7,1,1.2,1.4s1,0.7,1.6,0.9c0.6,0.2,1.2,0.4,1.8,0.6c0.5,0.1,0.9,0.3,1.3,0.4
		c0.4,0.1,0.8,0.3,1.1,0.4s0.6,0.3,0.8,0.5s0.3,0.4,0.3,0.7v0.1c0,0.4-0.2,0.7-0.5,0.9c-0.3,0.2-0.8,0.3-1.5,0.3
		c-0.8,0-1.6-0.2-2.5-0.5s-1.8-0.8-2.7-1.5l-2,3.1c1.1,0.9,2.3,1.5,3.5,1.9s2.4,0.6,3.6,0.6C49,293.5,49.9,293.4,50.7,293.2"/>
	<path class="st0" d="M80.1,284.1c0,0.6-0.1,1.1-0.3,1.6c-0.2,0.5-0.5,0.9-0.9,1.2s-0.8,0.6-1.3,0.8c-0.5,0.2-1,0.3-1.6,0.3
		c-1.2,0-2.1-0.4-2.9-1.1s-1.2-1.6-1.2-2.8V284c0-0.6,0.1-1.1,0.3-1.6c0.2-0.5,0.5-0.9,0.9-1.2c0.4-0.3,0.8-0.6,1.3-0.8
		c0.5-0.2,1-0.3,1.6-0.3s1.1,0.1,1.6,0.3c0.5,0.2,0.9,0.5,1.3,0.8s0.6,0.8,0.9,1.2C80,282.9,80.1,283.4,80.1,284.1L80.1,284.1z
		 M84.8,289.5v-12.9H80v2.2c-0.6-0.7-1.4-1.3-2.2-1.8c-0.8-0.5-1.9-0.7-3.2-0.7c-1,0-1.9,0.2-2.8,0.5s-1.7,0.8-2.4,1.5
		c-0.7,0.7-1.2,1.5-1.6,2.4c-0.4,1-0.6,2.1-0.6,3.3v0.1c0,1.2,0.2,2.3,0.6,3.3s0.9,1.8,1.6,2.4c0.7,0.7,1.5,1.2,2.4,1.5
		s1.8,0.5,2.8,0.5c1.3,0,2.3-0.2,3.1-0.7c0.8-0.5,1.6-1.1,2.3-2v0.8c0,1.5-0.4,2.6-1.2,3.4c-0.8,0.8-2,1.2-3.6,1.2
		c-1.1,0-2.1-0.1-3-0.4s-1.8-0.6-2.6-1.1l-1.6,3.5c1.1,0.6,2.2,1,3.5,1.3c1.2,0.3,2.6,0.5,3.9,0.5c1.6,0,3-0.2,4.2-0.5
		c1.2-0.4,2.2-0.9,3-1.7C84.1,294.6,84.8,292.4,84.8,289.5"/>
	<path class="st0" d="M89.5,293.2h4.7v-9.3c0-1.1,0.3-2,0.8-2.5c0.5-0.6,1.2-0.9,2.2-0.9c0.9,0,1.6,0.3,2.1,0.9s0.7,1.4,0.7,2.5v9.3
		h4.7v-10.8c0-1.9-0.5-3.4-1.5-4.5s-2.4-1.6-4.2-1.6c-0.6,0-1.1,0.1-1.6,0.2s-0.9,0.3-1.3,0.6c-0.4,0.2-0.8,0.5-1.1,0.9
		c-0.3,0.3-0.6,0.7-0.9,1v-2.4h-4.7v16.6L89.5,293.2L89.5,293.2z"/>
	<path class="st0" d="M132.3,284.9c0,0.7-0.1,1.3-0.3,1.9s-0.5,1-0.9,1.4s-0.8,0.7-1.3,0.9c-0.5,0.2-1,0.3-1.6,0.3
		c-0.6,0-1.1-0.1-1.6-0.3c-0.5-0.2-0.9-0.5-1.3-0.9s-0.7-0.9-0.9-1.5c-0.2-0.6-0.3-1.2-0.3-1.9v-0.1c0-0.7,0.1-1.3,0.3-1.9
		c0.2-0.6,0.5-1.1,0.9-1.5s0.8-0.7,1.3-0.9c0.5-0.2,1-0.3,1.6-0.3c0.6,0,1.1,0.1,1.6,0.3c0.5,0.2,0.9,0.5,1.3,0.9
		c0.4,0.4,0.7,0.9,0.9,1.5C132.1,283.5,132.3,284.2,132.3,284.9L132.3,284.9z M137,284.9L137,284.9c0-1.5-0.2-2.7-0.6-3.7
		c-0.4-1.1-1-2-1.7-2.7s-1.5-1.3-2.4-1.7c-0.9-0.4-1.9-0.6-2.8-0.6c-1.2,0-2.3,0.3-3.1,0.8c-0.8,0.5-1.5,1.2-2.1,1.9v-8.4h-4.7v22.7
		h4.7V291c0.6,0.7,1.2,1.2,2.1,1.7c0.8,0.5,1.9,0.7,3.1,0.7c1,0,1.9-0.2,2.9-0.6c0.9-0.4,1.7-0.9,2.4-1.7c0.7-0.7,1.3-1.6,1.7-2.7
		C136.8,287.5,137,286.3,137,284.9"/>
	<path class="st0" d="M148.1,293.3c0.5-0.1,0.9-0.3,1.3-0.6c0.4-0.2,0.8-0.5,1.1-0.9c0.3-0.3,0.6-0.7,0.9-1v2.4h4.7v-16.7h-4.7v9.3
		c0,1.1-0.3,2-0.8,2.5c-0.5,0.6-1.2,0.9-2.2,0.9c-0.9,0-1.6-0.3-2.1-0.9s-0.7-1.4-0.7-2.5v-9.3h-4.7v10.8c0,1.9,0.5,3.4,1.5,4.5
		s2.4,1.6,4.2,1.6C147.1,293.5,147.6,293.5,148.1,293.3"/>
	<path class="st0" d="M172.2,284.9c0,0.7-0.1,1.3-0.3,1.9s-0.5,1.1-0.9,1.5s-0.8,0.7-1.3,0.9c-0.5,0.2-1,0.3-1.6,0.3
		s-1.1-0.1-1.6-0.3s-0.9-0.5-1.3-0.9c-0.4-0.4-0.7-0.9-0.9-1.5s-0.3-1.2-0.3-1.9v-0.1c0-0.7,0.1-1.3,0.3-1.9s0.5-1,0.9-1.4
		s0.8-0.7,1.3-0.9c0.5-0.2,1-0.3,1.6-0.3s1.1,0.1,1.6,0.3c0.5,0.2,0.9,0.5,1.3,0.9c0.4,0.4,0.7,0.9,0.9,1.5
		C172.1,283.5,172.2,284.2,172.2,284.9L172.2,284.9z M176.9,293.2v-22.7h-4.7v8.2c-0.6-0.7-1.2-1.2-2.1-1.7
		c-0.8-0.5-1.9-0.7-3.1-0.7c-1,0-1.9,0.2-2.9,0.6c-0.9,0.4-1.7,0.9-2.4,1.7c-0.7,0.7-1.3,1.6-1.7,2.7s-0.6,2.3-0.6,3.7v0.1
		c0,1.4,0.2,2.6,0.6,3.7s1,2,1.7,2.7s1.5,1.3,2.4,1.7c0.9,0.4,1.9,0.6,2.8,0.6c1.2,0,2.3-0.3,3.1-0.8s1.5-1.2,2.1-1.9v2.4h4.8
		L176.9,293.2L176.9,293.2z"/>
	<path class="st0" d="M191.5,287.3c0,0.9-0.3,1.6-1,2.1s-1.6,0.8-2.7,0.8c-0.8,0-1.4-0.2-1.9-0.5c-0.5-0.4-0.7-0.9-0.7-1.5v-0.1
		c0-0.7,0.3-1.3,0.9-1.7c0.6-0.4,1.4-0.6,2.4-0.6c0.6,0,1.1,0.1,1.6,0.2s1,0.3,1.4,0.4V287.3z M195.9,293.2v-9.7
		c0-1.1-0.1-2.1-0.4-3c-0.3-0.9-0.7-1.7-1.4-2.3c-0.6-0.6-1.4-1.1-2.3-1.4c-0.9-0.3-2-0.5-3.3-0.5c-1.4,0-2.6,0.1-3.6,0.4
		s-1.9,0.6-2.9,1l1.2,3.6c0.8-0.3,1.5-0.5,2.2-0.7s1.5-0.2,2.4-0.2c1.2,0,2.1,0.3,2.7,0.8c0.6,0.5,0.9,1.3,0.9,2.3v0.3
		c-0.6-0.2-1.2-0.4-1.9-0.5c-0.6-0.1-1.4-0.2-2.2-0.2c-1,0-1.9,0.1-2.7,0.3c-0.8,0.2-1.5,0.5-2.1,1c-0.6,0.4-1.1,1-1.4,1.6
		c-0.3,0.7-0.5,1.5-0.5,2.4v0.1c0,0.8,0.2,1.6,0.5,2.2s0.7,1.2,1.2,1.6s1.1,0.8,1.8,1s1.4,0.3,2.2,0.3c1.2,0,2.1-0.2,3-0.6
		c0.8-0.4,1.5-0.9,2.1-1.5v1.8L195.9,293.2L195.9,293.2z"/>
	<path class="st0" d="M213.4,284.9c0,0.7-0.1,1.3-0.3,1.9s-0.5,1-0.9,1.4s-0.8,0.7-1.3,0.9c-0.5,0.2-1,0.3-1.6,0.3s-1.1-0.1-1.6-0.3
		c-0.5-0.2-0.9-0.5-1.3-0.9c-0.4-0.4-0.7-0.9-0.9-1.5s-0.3-1.2-0.3-1.9v-0.1c0-0.7,0.1-1.3,0.3-1.9s0.5-1.1,0.9-1.5s0.8-0.7,1.3-0.9
		c0.5-0.2,1-0.3,1.6-0.3s1.1,0.1,1.6,0.3c0.5,0.2,0.9,0.5,1.3,0.9c0.4,0.4,0.7,0.9,0.9,1.5C213.3,283.5,213.4,284.2,213.4,284.9
		L213.4,284.9z M218.1,284.9L218.1,284.9c0-1.5-0.2-2.7-0.6-3.7c-0.4-1.1-1-2-1.7-2.7s-1.5-1.3-2.4-1.7c-0.9-0.4-1.9-0.6-2.8-0.6
		c-1.2,0-2.3,0.3-3.1,0.8s-1.5,1.2-2.1,1.9v-2.4h-4.7v21.6h4.7V291c0.6,0.7,1.2,1.2,2.1,1.7c0.8,0.5,1.9,0.7,3.1,0.7
		c1,0,1.9-0.2,2.9-0.6c0.9-0.4,1.7-0.9,2.4-1.7c0.7-0.7,1.3-1.6,1.7-2.7C217.9,287.5,218.1,286.3,218.1,284.9"/>
	<path class="st0" d="M233,283.6h-7.1c0.2-1.1,0.6-1.9,1.2-2.6s1.4-1,2.4-1s1.8,0.3,2.4,1C232.4,281.7,232.8,282.5,233,283.6
		 M237.6,285.3c0-1.2-0.2-2.3-0.5-3.4s-0.8-2.1-1.5-2.9s-1.5-1.5-2.5-2s-2.2-0.7-3.6-0.7c-1.2,0-2.3,0.2-3.3,0.7s-1.9,1.1-2.6,1.9
		s-1.3,1.7-1.7,2.8c-0.4,1.1-0.6,2.2-0.6,3.4v0.1c0,1.3,0.2,2.5,0.7,3.5c0.4,1,1,2,1.8,2.7c0.8,0.8,1.7,1.4,2.8,1.8s2.2,0.6,3.5,0.6
		c1.5,0,2.8-0.3,4-0.8c1.1-0.5,2.1-1.3,2.9-2.3l-2.7-2.4c-0.7,0.6-1.3,1-1.9,1.3c-0.6,0.3-1.3,0.4-2.1,0.4c-1.1,0-1.9-0.3-2.7-0.8
		c-0.7-0.5-1.2-1.4-1.4-2.4h11.6c0-0.2,0-0.4,0-0.7C237.6,285.7,237.6,285.5,237.6,285.3"/>
	<path class="st0" d="M249.7,293.2c0.8-0.2,1.5-0.5,2-1c0.6-0.4,1-1,1.4-1.7c0.3-0.7,0.5-1.5,0.5-2.4V288c0-0.8-0.2-1.4-0.5-2
		c-0.3-0.5-0.7-1-1.2-1.4s-1-0.7-1.6-0.9c-0.6-0.3-1.2-0.5-1.8-0.7c-0.5-0.1-0.9-0.3-1.3-0.4c-0.4-0.1-0.8-0.3-1.1-0.5
		s-0.6-0.3-0.7-0.5c-0.2-0.2-0.3-0.4-0.3-0.6v-0.1c0-0.3,0.1-0.6,0.4-0.8c0.3-0.2,0.7-0.3,1.3-0.3s1.3,0.1,2.1,0.4s1.6,0.7,2.4,1.1
		l1.8-3.3c-0.9-0.6-1.9-1.1-3-1.4s-2.2-0.5-3.2-0.5c-0.8,0-1.6,0.1-2.4,0.3c-0.7,0.2-1.4,0.6-1.9,1c-0.5,0.5-1,1-1.3,1.7
		s-0.5,1.4-0.5,2.3v0.1c0,0.8,0.2,1.5,0.5,2.1s0.7,1,1.2,1.4s1,0.7,1.6,0.9c0.6,0.2,1.2,0.4,1.8,0.6c0.5,0.1,0.9,0.3,1.3,0.4
		c0.4,0.1,0.8,0.3,1.1,0.4s0.6,0.3,0.8,0.5s0.3,0.4,0.3,0.7v0.1c0,0.4-0.2,0.7-0.5,0.9c-0.3,0.2-0.8,0.3-1.5,0.3
		c-0.8,0-1.6-0.2-2.5-0.5s-1.8-0.8-2.7-1.5l-2,3.1c1.1,0.9,2.3,1.5,3.5,1.9s2.4,0.6,3.6,0.6C248.1,293.5,248.9,293.4,249.7,293.2"/>
	<path class="st0" d="M265.1,293.2c0.6-0.2,1.2-0.4,1.6-0.7v-3.8c-0.7,0.4-1.5,0.6-2.3,0.6c-1,0-1.5-0.5-1.5-1.6v-7.1h3.9v-4h-3.9
		v-4.3h-4.7v4.3h-2v4h2v7.9c0,1,0.1,1.8,0.4,2.4c0.2,0.6,0.6,1.1,1,1.5s0.9,0.7,1.5,0.8c0.6,0.2,1.2,0.2,2,0.2
		C263.8,293.5,264.5,293.4,265.1,293.2"/>
	<path class="st0" d="M7.9,259.5c0.5-0.1,0.9-0.3,1.3-0.6c0.4-0.2,0.8-0.5,1.1-0.9c0.3-0.3,0.6-0.7,0.9-1v2.4h4.7v-16.7h-4.7v9.3
		c0,1.1-0.3,2-0.8,2.5c-0.5,0.6-1.2,0.9-2.2,0.9c-0.9,0-1.6-0.3-2.1-0.9c-0.5-0.6-0.7-1.4-0.7-2.5v-9.3H0.6v10.8
		c0,1.9,0.5,3.4,1.5,4.5s2.4,1.6,4.2,1.6C6.9,259.7,7.4,259.6,7.9,259.5"/>
	<path class="st0" d="M21.2,259.4H26v-9.3c0-1.1,0.3-2,0.8-2.5c0.5-0.6,1.2-0.9,2.2-0.9c0.9,0,1.6,0.3,2.1,0.9
		c0.5,0.6,0.7,1.4,0.7,2.5v9.3h4.7v-10.8c0-1.9-0.5-3.4-1.5-4.5s-2.4-1.6-4.2-1.6c-0.6,0-1.1,0.1-1.6,0.2c-0.5,0.1-0.9,0.3-1.3,0.6
		c-0.4,0.2-0.8,0.5-1.1,0.9c-0.3,0.3-0.6,0.7-0.9,1v-2.4h-4.7V259.4z"/>
	<rect x="41.1" y="242.7" class="st0" width="4.7" height="16.7"/>
	<polygon class="st0" points="55.4,259.5 59.7,259.5 66.3,242.7 61.4,242.7 57.6,253.9 53.9,242.7 48.9,242.7 	"/>
	<path class="st0" d="M79.4,249.7h-7.1c0.2-1.1,0.6-1.9,1.2-2.6s1.4-1,2.4-1s1.8,0.3,2.4,1C78.9,247.8,79.2,248.7,79.4,249.7
		 M84,251.5c0-1.2-0.2-2.3-0.5-3.4c-0.3-1.1-0.8-2.1-1.5-2.9c-0.7-0.8-1.5-1.5-2.5-2s-2.2-0.7-3.6-0.7c-1.2,0-2.3,0.2-3.3,0.7
		s-1.9,1.1-2.6,1.9c-0.7,0.8-1.3,1.7-1.7,2.8c-0.4,1.1-0.6,2.2-0.6,3.4v0.1c0,1.3,0.2,2.5,0.7,3.5c0.4,1,1,2,1.8,2.7
		c0.8,0.8,1.7,1.4,2.8,1.8c1.1,0.4,2.2,0.6,3.5,0.6c1.5,0,2.8-0.3,4-0.8c1.1-0.5,2.1-1.3,2.9-2.3l-2.7-2.4c-0.7,0.6-1.3,1-1.9,1.3
		s-1.3,0.4-2.1,0.4c-1.1,0-1.9-0.3-2.7-0.8c-0.7-0.5-1.2-1.4-1.4-2.4h11.6c0-0.2,0-0.4,0-0.7C84,251.8,84,251.6,84,251.5"/>
	<path class="st0" d="M87.8,259.4h4.7v-6.2c0-2,0.5-3.5,1.4-4.4c0.9-1,2.1-1.4,3.7-1.4h0.2v-4.9c-1.4-0.1-2.5,0.2-3.4,0.9
		c-0.8,0.7-1.5,1.6-2,2.7v-3.4h-4.7v16.7L87.8,259.4L87.8,259.4z"/>
	<path class="st0" d="M109.4,259.4c0.8-0.2,1.5-0.5,2-1c0.6-0.4,1-1,1.4-1.7c0.3-0.7,0.5-1.5,0.5-2.4v-0.1c0-0.8-0.2-1.4-0.5-2
		c-0.3-0.5-0.7-1-1.2-1.4s-1-0.7-1.6-0.9c-0.6-0.3-1.2-0.5-1.8-0.7c-0.5-0.1-0.9-0.3-1.3-0.4c-0.4-0.1-0.8-0.3-1.1-0.5
		c-0.3-0.2-0.6-0.3-0.7-0.5c-0.2-0.2-0.3-0.4-0.3-0.6v-0.1c0-0.3,0.1-0.6,0.4-0.8s0.7-0.3,1.3-0.3c0.6,0,1.3,0.1,2.1,0.4
		c0.8,0.3,1.6,0.7,2.4,1.1l1.8-3.3c-0.9-0.6-1.9-1.1-3-1.4c-1.1-0.3-2.2-0.5-3.2-0.5c-0.8,0-1.6,0.1-2.4,0.3c-0.7,0.2-1.4,0.6-1.9,1
		c-0.5,0.5-1,1-1.3,1.7s-0.5,1.4-0.5,2.3v0.1c0,0.8,0.2,1.5,0.5,2.1s0.7,1,1.2,1.4s1,0.7,1.6,0.9s1.2,0.4,1.8,0.6
		c0.5,0.1,0.9,0.3,1.3,0.4c0.4,0.1,0.8,0.3,1.1,0.4c0.3,0.1,0.6,0.3,0.8,0.5c0.2,0.2,0.3,0.4,0.3,0.7v0.1c0,0.4-0.2,0.7-0.5,0.9
		s-0.8,0.3-1.5,0.3c-0.8,0-1.6-0.2-2.5-0.5s-1.8-0.8-2.7-1.5l-2,3.1c1.1,0.9,2.3,1.5,3.5,1.9s2.4,0.6,3.6,0.6
		C107.8,259.7,108.7,259.6,109.4,259.4"/>
	<rect x="117.2" y="242.7" class="st0" width="4.7" height="16.7"/>
	<path class="st0" d="M135.1,259.4c0.6-0.2,1.2-0.4,1.6-0.7v-3.8c-0.7,0.4-1.5,0.6-2.3,0.6c-1,0-1.5-0.5-1.5-1.6v-7.1h3.9v-4h-3.9
		v-4.3h-4.7v4.3h-2v4h2v7.9c0,1,0.1,1.8,0.4,2.4c0.2,0.6,0.6,1.1,1,1.5s0.9,0.7,1.5,0.8c0.6,0.2,1.2,0.2,2,0.2
		C133.8,259.7,134.5,259.6,135.1,259.4"/>
	<path class="st0" d="M146.7,264.2c0.5-0.2,1-0.4,1.4-0.8s0.8-0.9,1.2-1.4c0.4-0.6,0.7-1.3,1-2.2l6.4-17.1h-4.9l-3.6,11.4l-3.8-11.4
		h-5l6.5,16.7c-0.2,0.4-0.4,0.7-0.7,0.9c-0.2,0.2-0.6,0.2-1,0.2c-0.3,0-0.6-0.1-1-0.2s-0.7-0.3-1-0.5l-1.6,3.4
		c0.6,0.4,1.2,0.6,1.9,0.8c0.7,0.2,1.4,0.3,2.3,0.3C145.5,264.5,146.1,264.4,146.7,264.2"/>
	<path class="st0" d="M178.4,251.1c0,0.6-0.1,1.2-0.3,1.8c-0.2,0.5-0.5,1-0.9,1.4s-0.8,0.7-1.4,1c-0.5,0.2-1.1,0.4-1.8,0.4
		s-1.3-0.1-1.8-0.4c-0.5-0.2-1-0.6-1.4-1s-0.7-0.9-0.9-1.5c-0.2-0.5-0.3-1.1-0.3-1.8l0,0c0-0.6,0.1-1.2,0.3-1.8
		c0.2-0.5,0.5-1,0.9-1.4s0.8-0.7,1.4-1c0.5-0.2,1.1-0.4,1.8-0.4c0.6,0,1.2,0.1,1.8,0.4c0.5,0.2,1,0.6,1.4,1s0.7,0.9,0.9,1.5
		C178.3,249.9,178.4,250.5,178.4,251.1L178.4,251.1z M183.1,251.1L183.1,251.1c0-1.3-0.2-2.4-0.7-3.4s-1.1-2-1.9-2.7
		c-0.8-0.8-1.7-1.4-2.8-1.8c-1.1-0.4-2.3-0.7-3.6-0.7s-2.5,0.2-3.6,0.7s-2.1,1.1-2.9,1.9c-0.8,0.8-1.4,1.7-1.9,2.8
		c-0.5,1-0.7,2.2-0.7,3.4v0.1c0,1.2,0.2,2.3,0.7,3.4s1.1,2,1.9,2.7c0.8,0.8,1.7,1.4,2.8,1.8s2.3,0.7,3.6,0.7s2.5-0.2,3.6-0.7
		s2.1-1.1,2.9-1.9c0.8-0.8,1.4-1.7,1.9-2.8C182.9,253.4,183.1,252.3,183.1,251.1"/>
	<path class="st0" d="M187.6,259.4h4.7v-12.6h3.8v-3.9h-3.8v-0.7c0-1.2,0.6-1.8,1.7-1.8c0.4,0,0.8,0,1.1,0.1s0.7,0.2,1,0.3v-3.9
		c-0.4-0.1-0.9-0.3-1.4-0.3s-1.2-0.1-1.9-0.1c-1.7,0-3,0.4-3.8,1.3c-0.9,0.9-1.3,2.2-1.3,4v1.1h-2v3.9h2v12.6H187.6z"/>
	<path class="st0" d="M217.2,253.5c0,0.9-0.3,1.6-1,2.1s-1.6,0.8-2.7,0.8c-0.8,0-1.4-0.2-1.9-0.5c-0.5-0.4-0.7-0.9-0.7-1.5v-0.1
		c0-0.7,0.3-1.3,0.9-1.7c0.6-0.4,1.4-0.6,2.4-0.6c0.6,0,1.1,0.1,1.6,0.2c0.5,0.1,1,0.3,1.4,0.4V253.5z M221.7,259.4v-9.7
		c0-1.1-0.1-2.1-0.4-3c-0.3-0.9-0.7-1.7-1.4-2.3c-0.6-0.6-1.4-1.1-2.3-1.4c-0.9-0.3-2-0.5-3.3-0.5c-1.4,0-2.6,0.1-3.6,0.4
		s-1.9,0.6-2.9,1l1.2,3.6c0.8-0.3,1.5-0.5,2.2-0.7s1.5-0.2,2.4-0.2c1.2,0,2.1,0.3,2.7,0.8c0.6,0.5,0.9,1.3,0.9,2.3v0.3
		c-0.6-0.2-1.2-0.4-1.9-0.5c-0.6-0.1-1.4-0.2-2.2-0.2c-1,0-1.9,0.1-2.7,0.3s-1.5,0.5-2.1,1c-0.6,0.4-1.1,1-1.4,1.6
		c-0.3,0.7-0.5,1.5-0.5,2.4v0.1c0,0.8,0.2,1.6,0.5,2.2s0.7,1.2,1.2,1.6s1.1,0.8,1.8,1s1.4,0.3,2.2,0.3c1.2,0,2.1-0.2,3-0.6
		c0.8-0.4,1.5-0.9,2.1-1.5v1.8h4.5V259.4z"/>
	<path class="st0" d="M225.9,259.4h4.7v-6.2c0-2,0.5-3.5,1.4-4.4c0.9-1,2.1-1.4,3.7-1.4h0.2v-4.9c-1.4-0.1-2.5,0.2-3.4,0.9
		c-0.8,0.7-1.5,1.6-2,2.7v-3.4h-4.7v16.7L225.9,259.4L225.9,259.4z"/>
	<path class="st0" d="M247.6,259.4c0.6-0.2,1.2-0.4,1.6-0.7v-3.8c-0.7,0.4-1.5,0.6-2.3,0.6c-1,0-1.5-0.5-1.5-1.6v-7.1h3.9v-4h-3.9
		v-4.3h-4.7v4.3h-2v4h2v7.9c0,1,0.1,1.8,0.4,2.4c0.2,0.6,0.6,1.1,1,1.5s0.9,0.7,1.5,0.8c0.6,0.2,1.2,0.2,2,0.2
		C246.4,259.7,247,259.6,247.6,259.4"/>
	<path class="st0" d="M271.6,253.5c0,0.9-0.3,1.6-1,2.1s-1.6,0.8-2.7,0.8c-0.8,0-1.4-0.2-1.9-0.5c-0.5-0.4-0.7-0.9-0.7-1.5v-0.1
		c0-0.7,0.3-1.3,0.9-1.7s1.4-0.6,2.4-0.6c0.6,0,1.1,0.1,1.6,0.2c0.5,0.1,1,0.3,1.4,0.4L271.6,253.5L271.6,253.5z M276,259.4v-9.7
		c0-1.1-0.1-2.1-0.4-3s-0.7-1.7-1.4-2.3c-0.6-0.6-1.4-1.1-2.3-1.4c-0.9-0.3-2-0.5-3.3-0.5c-1.4,0-2.6,0.1-3.6,0.4s-1.9,0.6-2.9,1
		l1.2,3.6c0.8-0.3,1.5-0.5,2.2-0.7s1.5-0.2,2.4-0.2c1.2,0,2.1,0.3,2.7,0.8s0.9,1.3,0.9,2.3v0.3c-0.6-0.2-1.2-0.4-1.9-0.5
		c-0.6-0.1-1.4-0.2-2.2-0.2c-1,0-1.9,0.1-2.7,0.3c-0.8,0.2-1.5,0.5-2.1,1c-0.6,0.4-1.1,1-1.4,1.6c-0.3,0.7-0.5,1.5-0.5,2.4v0.1
		c0,0.8,0.2,1.6,0.5,2.2s0.7,1.2,1.2,1.6s1.1,0.8,1.8,1c0.7,0.2,1.4,0.3,2.2,0.3c1.2,0,2.1-0.2,3-0.6c0.8-0.4,1.5-0.9,2.1-1.5v1.8
		h4.5L276,259.4L276,259.4z"/>
	<path class="st0" d="M280.2,259.4h4.7v-9.3c0-1.1,0.3-2,0.8-2.5c0.5-0.6,1.2-0.9,2.2-0.9c0.9,0,1.6,0.3,2.1,0.9
		c0.5,0.6,0.7,1.4,0.7,2.5v9.3h4.7v-10.8c0-1.9-0.5-3.4-1.5-4.5s-2.4-1.6-4.2-1.6c-0.6,0-1.1,0.1-1.6,0.2c-0.5,0.1-0.9,0.3-1.3,0.6
		c-0.4,0.2-0.8,0.5-1.1,0.9c-0.3,0.3-0.6,0.7-0.9,1v-2.4h-4.7L280.2,259.4L280.2,259.4z"/>
	<path class="st0" d="M311.7,251.1c0,0.7-0.1,1.3-0.3,1.9c-0.2,0.6-0.5,1.1-0.9,1.5s-0.8,0.7-1.3,0.9s-1,0.3-1.6,0.3
		s-1.1-0.1-1.6-0.3s-0.9-0.5-1.3-0.9s-0.7-0.9-0.9-1.5c-0.2-0.6-0.3-1.2-0.3-1.9V251c0-0.7,0.1-1.3,0.3-1.9s0.5-1,0.9-1.4
		s0.8-0.7,1.3-0.9s1-0.3,1.6-0.3s1.1,0.1,1.6,0.3s0.9,0.5,1.3,0.9s0.7,0.9,0.9,1.5C311.6,249.7,311.7,250.3,311.7,251.1L311.7,251.1
		z M316.4,259.4v-22.7h-4.7v8.2c-0.6-0.7-1.2-1.2-2.1-1.7c-0.8-0.5-1.9-0.7-3.1-0.7c-1,0-1.9,0.2-2.9,0.6c-0.9,0.4-1.7,0.9-2.4,1.7
		c-0.7,0.7-1.3,1.6-1.7,2.7s-0.6,2.3-0.6,3.7v0.1c0,1.4,0.2,2.6,0.6,3.7c0.4,1.1,1,2,1.7,2.7s1.5,1.3,2.4,1.7
		c0.9,0.4,1.9,0.6,2.8,0.6c1.2,0,2.3-0.3,3.1-0.8c0.8-0.5,1.5-1.2,2.1-1.9v2.4h4.8L316.4,259.4L316.4,259.4z"/>
	<rect x="281.2" y="279" class="st0" width="35.3" height="14.2"/>
	<path class="st0" d="M119.6,240.4c1.4,0,2.6-1.2,2.6-2.6s-1.2-2.6-2.6-2.6s-2.6,1.2-2.6,2.6S118.1,240.4,119.6,240.4"/>
	<path class="st0" d="M43.5,240.4c1.4,0,2.6-1.2,2.6-2.6s-1.2-2.6-2.6-2.6c-1.4,0-2.6,1.2-2.6,2.6S42,240.4,43.5,240.4"/>
	<rect x="158.4" y="183.6" class="st0" width="4.7" height="16.7"/>
	<path class="st0" d="M160.8,181.3c1.4,0,2.6-1.2,2.6-2.6s-1.2-2.6-2.6-2.6c-1.4,0-2.6,1.2-2.6,2.6S159.3,181.3,160.8,181.3"/>
	<rect x="58.7" y="276.5" class="st0" width="4.7" height="16.7"/>
	<path class="st0" d="M61,274.2c1.4,0,2.6-1.2,2.6-2.6S62.5,269,61,269c-1.4,0-2.6,1.2-2.6,2.6S59.6,274.2,61,274.2"/>
</g>
</svg>
