<?xml version="1.0" encoding="UTF-8"?>
<svg width="24px" height="24px" viewBox="0 0 24 24" version="1.1" xmlns="http://www.w3.org/2000/svg" xmlns:xlink="http://www.w3.org/1999/xlink">
    <title>icon-feedback-blk</title>
    <g id="icon-feedback-blk" stroke="none" stroke-width="1" fill="none" fill-rule="evenodd">
        <path d="M4.8,3 C3.81624348,3 3,3.81624348 3,4.8 L3,15.6 C3,16.5837567 3.81624348,17.4 4.8,17.4 L17.3999999,17.4 L21,21 L20.9894528,4.79824221 C20.9894537,3.81448569 20.1721223,3 19.1894528,3 L4.8,3 Z M4.8,4.8 L19.1894528,4.8 L19.1964845,16.6511721 L18.1453124,15.6 L4.8,15.6 L4.8,4.8 Z M7.49824221,7.5 L7.49824221,9.3 L16.4982422,9.3 L16.4982422,7.5 L7.49824221,7.5 Z M7.49824221,11.1 L7.49824221,12.9 L13.7982422,12.9 L13.7982422,11.1 L7.49824221,11.1 Z" id="Shape" fill="#000000" fill-rule="nonzero"></path>
    </g>
</svg>